<?xml version="1.0" encoding="UTF-8"?>
<svg id="Layer_1" xmlns="http://www.w3.org/2000/svg" version="1.1" viewBox="0 0 200.59 191.72">
  <!-- Generator: Adobe Illustrator 29.7.1, SVG Export Plug-In . SVG Version: 2.1.1 Build 8)  -->
  <defs>
    <style>
      .st0 {
        fill: #010101;
      }
    </style>
  </defs>
  <path class="st0" d="M99.77,38.13c7.76-17.29,29.66-23.21,45.3-12.26,13.56,9.5,17.18,28.24,7.97,42.1-3.15,4.74-7.49,8.12-12.39,10.89l-.03,38.04c-.03,1.51-.79,2.65-1.95,3.53-15.62,6.67-30.97,14.81-46.63,21.29-1.49.62-3,1.53-4.68,1.3l-49.29-22.2c-1.53-.77-2.61-2.17-2.65-3.93l.04-57.78c.22-1.48,1.15-2.6,2.43-3.33l48.82-22.12c.47-.17.96-.22,1.46-.21,2.07.05,11.01,5.09,11.62,4.66ZM125.21,29.19c-16.99,1.65-25.66,21.91-15,35.38,8.8,11.12,25.7,11.12,34.5,0,11.98-15.14-.38-37.25-19.5-35.38ZM97.01,46.68c-3.2-1.02-6.1-3.12-9.34-3.83-11.71,5.58-23.75,10.49-35.45,16.07-.28.13-1.9.67-1.46,1.14l36.7,16.59.89.07,14.72-6.53c.33-.48-1.77-3.09-2.14-3.75-3.45-6.14-4.81-12.72-3.93-19.77ZM83.63,84.44l-39.44-17.8v47.38l39.44,17.8v-47.38ZM131.84,81.43c-7.81,1.2-15.12-.99-21.78-4.91l-17.67,7.92v47.38l39.44-17.8v-32.59Z"/>
  <path class="st0" d="M131.84,46.64h9.72c1.75,0,3.49,2.84,3.45,4.52s-1.77,4.25-3.45,4.25h-9.72v9.72c0,1.67-2.62,3.41-4.25,3.45-1.73.04-4.52-1.64-4.52-3.45v-9.72h-9.72c-1.67,0-3.41-2.62-3.45-4.25-.04-1.73,1.64-4.52,3.45-4.52h9.72v-9.72c0-1.8,2.79-3.49,4.52-3.45,1.6.04,4.25,1.84,4.25,3.45v9.72Z"/>
</svg>