<?xml version="1.0" encoding="UTF-8"?>
<svg id="Layer_1" xmlns="http://www.w3.org/2000/svg" version="1.1" viewBox="0 0 200.59 191.72">
  <!-- Generator: Adobe Illustrator 29.7.1, SVG Export Plug-In . SVG Version: 2.1.1 Build 8)  -->
  <defs>
    <style>
      .st0 {
        fill: #030303;
        stroke: #000;
        stroke-miterlimit: 10;
        stroke-width: 4px;
      }
    </style>
  </defs>
  <path class="st0" d="M95.4,84.05l51.19,29.86c.52,1.75-1.99,5-3.01,6.47-25.84,37.41-82.13,34.07-104.22-5.39-21.94-39.19,5.46-88.92,50.11-91.24,1.57-.08,4.99-.47,5.69,1.16l.25,59.13ZM90.97,28.14c-27.42,1.2-50.44,21.78-54.26,49.01-1.46,10.42.24,24.81,5.65,34.03.13.23-.06.45.47.35l48.14-27.43V28.14ZM141.44,115.37l-47.16-27.03-1.23-.4-48.16,27.43c7.6,12.51,20.66,21.87,34.94,25.27,23.81,5.67,48.88-4.52,61.61-25.27Z"/>
  <path class="st0" d="M106.73,17.23c1.71-.38,5.46.02,7.34.22,40.6,4.27,66.17,49.53,49.2,86.77-.77,1.68-2.65,6.42-4.73,6.21-17.66-9.72-35.01-20.07-52.54-30.04-.62-.45-.88-1.13-.85-1.89V19.49c-.06-1.01.57-2.03,1.58-2.26ZM109.56,21.56v55.95l48.14,27.43c.47.08,1.05-1.55,1.28-2.01,8.16-16.97,6.47-37.49-3.12-53.48-9.82-16.38-27.05-27.07-46.3-27.89Z"/>
</svg>