<?xml version="1.0" encoding="UTF-8"?>
<svg id="Layer_1" xmlns="http://www.w3.org/2000/svg" version="1.1" viewBox="0 0 500 500">
  <!-- Generator: Adobe Illustrator 29.7.1, SVG Export Plug-In . SVG Version: 2.1.1 Build 8)  -->
  <defs>
    <style>
      .st0 {
        fill: #fe6a68;
        stroke: #fe6a68;
        stroke-miterlimit: 10;
        stroke-width: 5px;
      }
    </style>
  </defs>
  <path class="st0" d="M348.82,268.94h-14.82c.09-22.35,1.54-48.24.02-70.19-.48-6.99-2.43-10.53-8.83-13.41-13.58-6.12-33.09-12.77-47.46-17.38-5.28-1.69-8.6-3.07-13.92,0-4,2.31-5.8,6.46-6.23,10.9.05,33.27-.09,66.54,0,99.8h-14.82c.04-33.65-.03-67.32,0-100.97h-36.36c-3.24,0-7.83,5.37-8.79,8.35-2,6.2,2.26,18.95-5.79,21.07-11.38,3-10.72-10.85-10.22-18.09.97-14.23,11.83-25.57,26.17-26.63,12.98-.95,27.12.74,40.22.03,7.49-9.99,19.34-13.27,31.25-9.86,15.16,4.34,35.53,12.18,50.25,18.3,10.55,4.39,17.17,10.71,19.28,22.4.04,25.22.14,50.45.06,75.67Z"/>
  <path class="st0" d="M348.82,268.94c-.04,11.6.98,25.56.02,36.84-1,11.69-9.21,19.03-19.35,23.26-14.61,6.08-33.42,13.1-48.51,17.72-12.86,3.94-24.6,1.64-32.99-9.28-13.1-.72-27.24.98-40.22.03-12.08-.89-22.94-9.8-25.48-21.76-.83-3.94-1.27-13.73-.35-17.54,1.83-7.6,12.98-7.33,14.75-.56,2.02,7.76-3.29,18.77,7.46,23.57,1.49.67,4.87,1.45,6.42,1.45h31.49c.38,0,.82-1.12.72-1.6-.03-14.13-.04-28.27-.02-42.4h14.82c.03,13.31-1.04,28.94-.02,41.93.48,6.08,3.43,11.04,9.54,12.69,4.29,1.16,6.71-.09,10.63-1.35,14.28-4.58,30.9-10.67,44.8-16.34,7.16-2.92,10.75-5.1,11.46-13.55.85-10.22-.03-22.62,0-33.11h14.82Z"/>
  <path class="st0" d="M201.08,257.36h-44.23c-.14,0-1.97-1.13-2.31-1.39-4.16-3.14-4.16-8.9,0-12.04.34-.26,2.18-1.39,2.31-1.39h44.23c-2.8-3.99-9.3-7.34-9.3-12.74,0-6.02,7.14-9.22,12.05-5.99,3.9,2.56,18.11,16.67,21.11,20.57,2.56,3.32,3,7.17.47,10.68-2.88,4-12.42,12.75-16.46,16.43-3.91,3.57-8.2,8.38-13.87,4.59-8.83-5.9,1.7-14.15,5.99-18.73Z"/>
</svg>