<?xml version="1.0" encoding="UTF-8"?>
<svg id="Layer_1" xmlns="http://www.w3.org/2000/svg" version="1.1" viewBox="0 0 200.59 191.72">
  <!-- Generator: Adobe Illustrator 29.7.1, SVG Export Plug-In . SVG Version: 2.1.1 Build 8)  -->
  <defs>
    <style>
      .st0 {
        fill: #050505;
        stroke: #000;
        stroke-miterlimit: 10;
        stroke-width: 5px;
      }
    </style>
  </defs>
  <path class="st0" d="M113.22,79.45c-7-.25-12.03-6.6-10.16-13.49,1.27-4.66,5.62-7.8,10.42-7.82-.72-5.55,1.42-10.93,7.58-11.46,11.39-.98,24.17.76,35.7,0,4.08.35,7.12,3.25,7.59,7.32,0,23.61.08,47.26-.29,70.84-.07,4.59.56,10.84-.01,15.17-.5,3.78-3.85,6.55-7.56,6.82-7.69.57-15.75-.25-23.43-.29-20.6-.12-41.2.11-61.8.02-3.74-.32-6.58-2.73-7.51-6.34.02-11.75-1.16-24.74-.35-36.43.66-9.45,7.48-9.24,15.19-8.91.03-14.88,21.34-15.02,21.04,0h13.58v-15.45ZM161.16,95.16v-41.14c0-.09-.58-1.54-.68-1.71-.74-1.22-2.55-2.26-3.97-2.42-11.25.76-23.8-1-34.9,0-2.34.21-4.48,1.82-4.85,4.2s1.11,6.93-1.86,7.46c-2.35.42-3.56-.37-5.91,1.28-4.95,3.45-3.52,11.61,2.36,13.05,1.25.31,3.3.12,4.36.43,1.47.43.72,2.88.7,3.8-.07,4.93.08,9.87.01,14.79h13.71c.1,0,1.88.35,2,.4,1.63.7.78,4.92,1.63,6.89,2.73,6.32,12.52,5.13,13.7-1.69.22-1.3-.12-3.08.17-4.09.07-.24,1.06-1.25,1.14-1.25h12.38ZM113.22,98.09h-15.58c-.08,0-1.07-1.01-1.14-1.25-.47-1.59.25-3.32-.62-5.5-2.68-6.69-12.67-5.36-13.75,1.09-.35,2.06.9,5.33-2.05,5.67-4.38.51-11.1-1.87-13.06,3.45l-.13,37.7c.28,1.46,1.24,2.89,2.6,3.52.22.1,1.7.6,1.8.6h41.41l.26-11.98c-14.81-.23-14.91-21.16,0-21.31l.26-11.98ZM116.42,98.09v13.18c0,3.09-4.07,1.91-5.92,2.34-6.57,1.52-7.59,10.76-1.55,13.65,2.31,1.1,3.63.26,5.67.73.41.09,1.53,1.11,1.53,1.39v13.98c8.74.07,17.5-.08,26.24-.01,4.43.04,9.11.67,13.58.29,3.03-.26,4.66-1.9,4.93-4.93.68-7.8-.11-17.29-.02-25.32,0-.76.28-1.41.29-2.11.06-4.31-.07-8.62-.01-12.93h-10.39c.29,14.95-20.91,14.88-21.04,0l-13.31-.27Z"/>
  <path class="st0" d="M92.89,56.19c-2.15,1.92-3.73-.81-5.7-1.18-8.11-1.51-12.51,7.92-6.33,12.99,1.4,1.14,3,.97,2.47,3.53-.21,1.03-4.48,7.61-5.39,8.46-6.75,6.27-15.22-3.41-21.36-6.21-1.44-1.89.03-2.75.66-4.37,2.4-6.24-4.73-11.51-9.92-7.53-1.72,1.32-1.96,4.17-4.68,3.34-.75-.23-5.13-3.03-5.93-3.65-3.33-2.57-4.32-6.54-2.53-10.42,6.6-9.61,11.8-21.08,18.48-30.52,5.37-7.58,11.31-2.83,17.27.79,7.77-12.76,25.59-1.71,18,11.02,2.76,2.34,7.24,3.69,9.43,6.57,4.74,6.23-1.64,11.83-4.46,17.2ZM91.1,53.07c1.82-3.92,7.64-9.21,2.67-13.15-2.62-2.08-6.56-3.48-9.16-5.75-1.34-2.06.64-3.27,1.32-5.06,3.13-8.2-7.62-13.85-12.49-7.16-1.6,2.2-1.32,4.3-4.95,2.51-4.2-2.06-9.17-8-13.16-1.98-5.07,10.03-13.24,19.89-18.05,29.89-2.51,5.23,1.94,6.86,5.56,9.2,2.24-1.77,3.59-3.74,6.68-4.16,8.52-1.16,14.17,7.03,10.18,14.57l10.74,6.45c5.2,2.04,7.09-3.62,9.25-7.13.05-.44-1.39-1.14-1.78-1.54-8.9-9.09,2.19-23.08,13.2-16.7Z"/>
  <polygon class="st0" points="160.88 113.39 160.88 97.65 162.71 96.71 160.88 113.39"/>
  <polygon class="st0" points="161.79 108.86 160.88 108.86 160.88 142.03 163.32 139.59 161.79 108.86"/>
  <path class="st0" d="M164.01,121.9h0c0,.67-1,.71-1.05.04h0s0-.05,0-.08h0c.04-.68,1.05-.65,1.05.03Z"/>
</svg>