<?xml version="1.0" encoding="UTF-8"?>
<svg id="Layer_1" xmlns="http://www.w3.org/2000/svg" version="1.1" viewBox="0 0 500 500">
  <!-- Generator: Adobe Illustrator 29.7.1, SVG Export Plug-In . SVG Version: 2.1.1 Build 8)  -->
  <defs>
    <style>
      .st0 {
        fill: #fe6a68;
        stroke: #fe6a68;
        stroke-miterlimit: 10;
        stroke-width: 4px;
      }
    </style>
  </defs>
  <path class="st0" d="M250.33,341.62c-25.65,0-47.34-3.95-65.09-11.85-17.75-7.9-26.62-17.54-26.62-28.92v-101.91c0-11.21,8.96-20.81,26.88-28.79,17.92-7.98,39.53-11.97,64.84-11.97s46.92,3.99,64.84,11.97c17.92,7.98,26.88,17.58,26.88,28.79v101.91c0,11.38-8.87,21.02-26.62,28.92-17.75,7.9-39.45,11.85-65.09,11.85ZM250.33,217.3c14.61,0,29.6-2.25,44.97-6.75,15.37-4.5,25.26-9.55,29.68-15.16-4.59-5.43-14.56-10.45-29.93-15.03-15.37-4.59-30.27-6.88-44.71-6.88s-29.98,2.21-45.09,6.62c-15.12,4.42-25.05,9.51-29.81,15.29,4.76,5.94,14.61,11.08,29.55,15.41,14.95,4.33,30.06,6.5,45.35,6.5ZM250.08,271.82c7.13,0,14.27-.38,21.4-1.15s13.97-1.91,20.51-3.44,12.78-3.4,18.73-5.6,11.29-4.67,16.05-7.39v-39.49c-4.93,2.72-10.36,5.18-16.3,7.39-5.94,2.21-12.23,4.08-18.85,5.6s-13.42,2.72-20.38,3.57-14.01,1.27-21.15,1.27-14.27-.42-21.4-1.27-13.97-2.04-20.51-3.57-12.74-3.4-18.6-5.6c-5.86-2.21-11.08-4.67-15.67-7.39v39.49c4.59,2.72,9.77,5.18,15.54,7.39,5.77,2.21,11.93,4.08,18.47,5.6s13.38,2.68,20.51,3.44,14.35,1.15,21.65,1.15ZM250.33,326.33c8.15,0,16.56-.72,25.22-2.17s16.6-3.35,23.82-5.73c7.22-2.38,13.33-5.01,18.34-7.9,5.01-2.89,8.03-5.86,9.04-8.92v-31.85c-4.76,2.72-10.11,5.14-16.05,7.26s-12.19,3.95-18.73,5.48-13.33,2.68-20.38,3.44-14.22,1.15-21.53,1.15-14.52-.38-21.65-1.15-13.97-1.91-20.51-3.44-12.7-3.35-18.47-5.48c-5.77-2.12-10.95-4.54-15.54-7.26v32.1c.85,2.89,3.74,5.82,8.66,8.79s11.04,5.6,18.34,7.9,15.29,4.16,23.95,5.6,17.15,2.17,25.48,2.17Z"/>
</svg>