<?xml version="1.0" encoding="UTF-8"?>
<svg id="Layer_1" xmlns="http://www.w3.org/2000/svg" version="1.1" viewBox="0 0 500 500">
  <!-- Generator: Adobe Illustrator 29.7.1, SVG Export Plug-In . SVG Version: 2.1.1 Build 8)  -->
  <defs>
    <style>
      .st0 {
        fill: #fe6a68;
      }
    </style>
  </defs>
  <path class="st0" d="M342.26,265.19c2.94,2.86,4.67,6.69,5.62,10.65-.98,14.51,1.45,31.05.03,45.32-.89,9.02-9.27,16.05-18.08,16.75-22.95,1.82-48.28-1.39-71.49-.02-8.61-.71-16.78-8-17.64-16.72-1.4-14.15,1.03-30.51,0-44.89,1.61-9.62,9.37-16.03,18.99-16.75,23.39-1.75,49.66.87,73.2.6,3.14.71,7.05,2.83,9.36,5.07ZM328.68,279.23h-68.73v38.95h68.73v-38.95Z"/>
  <path class="st0" d="M254.29,234.62c-2.31,2.24-6.22,4.37-9.36,5.07-23.54-.27-49.82,2.36-73.2.6-9.61-.72-17.37-7.13-18.99-16.75,1.03-14.38-1.4-30.75,0-44.89.86-8.72,9.04-16.01,17.64-16.72,23.2,1.36,48.53-1.84,71.49-.02,8.81.7,17.18,7.72,18.08,16.75,1.41,14.27-1.02,30.81-.03,45.32-.95,3.95-2.68,7.79-5.62,10.65ZM240.7,181.63h-68.73v38.95h68.73v-38.95Z"/>
  <path class="st0" d="M215.34,332.22c-2.74,2.74-7.69,5.2-11.58,5.6-6.94.72-30.68.91-36.83-.63-7.45-1.86-13.09-8.5-14.2-16.04.93-14.36-1.25-30.29-.02-44.46.8-9.21,9.23-16.27,18.17-17.11,8.08-.76,22.49-.68,30.66-.08,29.67,2.19,16.56,40.91,19.47,60.29-.34,4.34-2.62,9.37-5.67,12.42ZM201.3,279.23h-29.32v38.95h29.32v-38.95Z"/>
  <path class="st0" d="M342.26,234.62c-3.19,3.1-8.07,5.18-12.5,5.6-8.08.76-22.49.68-30.66.08-29.75-2.19-16.55-41.3-19.45-60.72.97-9.04,8.49-16.82,17.64-17.64,7.16-.64,30.12-.9,36.42.68,7.05,1.76,13.47,8.71,14.2,16.04,1.39,14.02-1.05,30.21.02,44.46-.62,4.23-2.61,8.52-5.68,11.5ZM328.68,181.63h-29.32v38.95h29.32v-38.95Z"/>
</svg>