<?xml version="1.0" encoding="UTF-8"?>
<svg id="Layer_1" xmlns="http://www.w3.org/2000/svg" version="1.1" viewBox="0 0 500 500">
  <!-- Generator: Adobe Illustrator 29.7.1, SVG Export Plug-In . SVG Version: 2.1.1 Build 8)  -->
  <defs>
    <style>
      .st0 {
        fill: #050505;
      }

      .st0, .st1, .st2 {
        stroke: #fe6a68;
        stroke-miterlimit: 10;
        stroke-width: 11px;
      }

      .st1 {
        fill: #fe6a68;
      }

      .st2 {
        fill: #070707;
      }
    </style>
  </defs>
  <path class="st2" d="M173.52,269.19c-.65-.71-1.04-2.18-1.05-3.16l.03-78.53c.96-9.48,7.96-16.36,17.5-17.1h122.9c9.69.75,16.77,7.83,17.52,17.52v122.9c-.75,9.69-7.83,16.77-17.52,17.52l-79.66-.21c-4.26-2.1-3.04-6.97,1.58-7.34l79.81-.04c3.9-.54,8.12-5.01,8.26-9.04l-.02-125.11c-.45-4.2-4.82-8.43-9.08-8.67h-124.68c-4.28.24-8.62,4.48-9.08,8.67l-.02,80.26c-.53,2.99-4.29,4.73-6.49,2.33Z"/>
  <path class="st0" d="M278.07,228.08l-54.34,54.12c-3.42,2.36-7.14.19-5.79-4.02l54.8-55.42h-25.95c-.13,0-2-1.1-2.2-1.34-1.6-1.88-.63-5.06,1.77-5.74,11.43.77,24.24-1.06,35.5-.03,2.56.23,3.1.81,3.33,3.33,1.03,11.26-.8,24.07-.03,35.5-.68,2.4-3.86,3.37-5.74,1.77-.24-.21-1.34-2.07-1.34-2.2v-25.95Z"/>
  <path class="st0" d="M184.36,300.5c16.5-2.24,22.41,20.64,7.5,26.58-19.69,7.84-27.13-23.92-7.5-26.58ZM185.24,307.58c-8.09,1.39-7.08,15.25,3.34,13.11,7.52-1.55,5.52-14.63-3.34-13.11Z"/>
  <path class="st1" d="M185.24,307.58c8.86-1.52,10.86,11.56,3.34,13.11-10.42,2.14-11.43-11.72-3.34-13.11Z"/>
</svg>