<?xml version="1.0" encoding="UTF-8"?>
<svg id="Layer_1" xmlns="http://www.w3.org/2000/svg" version="1.1" viewBox="0 0 200.59 191.72">
  <!-- Generator: Adobe Illustrator 29.7.1, SVG Export Plug-In . SVG Version: 2.1.1 Build 8)  -->
  <defs>
    <style>
      .st0 {
        fill: #020202;
      }

      .st1 {
        stroke: #000;
        stroke-miterlimit: 10;
        stroke-width: 2px;
      }
    </style>
  </defs>
  <path class="st0" d="M101.02,16.71c27.64-1.6,53.47,16.57,61.03,43.14.62,2.18,1.72,5.34.89,7.45-1.55,3.95-7.39,3.96-8.94,0-.91-2.32-1.29-5.56-2.23-8.2-14.24-39.75-70.02-44.44-90.98-7.8-23.37,40.85,16.44,88.19,60.64,72.57,2.77-.98,8.85-4.71,10.83-4.97,5.77-.74,7.81,6,2.3,9.45-24.18,15.16-57.96,8.32-75.97-13.05-31.91-37.89-6.62-95.75,42.43-98.6Z"/>
  <path class="st0" d="M100.19,80.72c-9.19-1.3-17.79-9.06-15.31-19.03,1.46-5.84,6.58-9.67,12.04-11.51.58-.2,3.13-.66,3.24-.79.17-.19-.31-3.13,1.22-4.81,3.49-3.85,9.29.05,8.38,4.81,7.03,1.1,15.07,6.85,15.48,14.47.41,7.42-8.02,7.78-9.42,2.26-.2-.77-.09-1.55-.33-2.35-.68-2.29-3.65-3.84-5.76-4.52v12.67c1.35.67,3,.91,4.47,1.5,17.55,7,12.83,27.59-4.47,29.96.69,4.29-3.25,8.18-7.37,5.73-3.05-1.82-1.77-5.06-2.47-5.58-.31-.23-2.94-.72-3.74-1.03-5.82-2.22-12.25-7.92-11.78-14.76.33-4.78,6.38-6.46,8.9-2.34.82,1.34.51,2.37,1.01,3.76.79,2.19,3.62,4.12,5.9,4.39v-12.82ZM100.19,59.26c-8.26,1.97-8.16,9.63,0,11.63v-11.63ZM109.73,93.54c7.82-1.83,7.81-9.42,0-11.33v11.33Z"/>
  <path class="st1" d="M154.83,79.12c.47.25.89.43,1.22.88.11.15.43.79.43.92l-.29,27.58,8.62-8.4c.97-.89,2.18-.88,3.18-.05,1.28,1.07,2.83,2.72,1.46,4.39l-15.12,14.8c-.89.68-1.98.67-2.86-.03l-14.8-15.12c-1.32-1.7.24-3.3,1.55-4.35.92-.73,1.94-.8,2.9-.09l8.72,8.87.29-27.58c0-.25.41-.95.6-1.15.33-.34.77-.47,1.16-.7l2.94.03Z"/>
</svg>