<?xml version="1.0" encoding="UTF-8"?>
<svg id="Layer_1" xmlns="http://www.w3.org/2000/svg" version="1.1" viewBox="0 0 200.59 191.72">
  <!-- Generator: Adobe Illustrator 29.7.1, SVG Export Plug-In . SVG Version: 2.1.1 Build 8)  -->
  <defs>
    <style>
      .st0 {
        fill: #030303;
      }
    </style>
  </defs>
  <path class="st0" d="M88.71,36.85c3.96-.58,14.4-.44,18.56-.08,6.44.55,2.85,6.2,5.28,10.06,1.54,2.44,4.43,3.86,7.31,3.64,3.77-.29,6.66-5.25,9.95-.91l9.84,17.26c.87,4.21-3.56,4.34-5.68,6.79-2.66,3.07-2.35,8.1.68,10.8,2.19,1.95,5.82,2.14,5,6.1-3.02,5.18-5.72,10.65-8.92,15.71-.83,1.31-1.71,3.16-3.5,3.37-2.08.25-4.64-2.43-7.12-2.7-3.45-.38-7.19,1.74-8.26,5.1-.98,3.06.98,7.64-3.61,8.44-6.03-.17-12.83.64-18.78.13-6.44-.55-2.85-6.2-5.28-10.06-1.54-2.44-4.43-3.86-7.31-3.64-3.77.29-6.66,5.25-9.95.91l-9.84-17.26c-.82-3.96,2.81-4.16,5-6.1,3.04-2.7,3.35-7.73.68-10.8-2.12-2.45-6.55-2.58-5.68-6.79,3.02-5.18,5.72-10.65,8.92-15.71.83-1.31,1.71-3.16,3.5-3.37,2.08-.25,4.64,2.43,7.12,2.7,3.37.37,7.05-1.64,8.18-4.9s-.97-7.97,3.91-8.68ZM104.66,43.89h-12.6c-.43,8.1-7.71,14.02-15.75,13.43-1.93-.14-3.49-.94-5.31-1.36l-5.78,10.54c-.1.49.5.46.83.78.65.62,1.5,1.4,2.05,2.07,5.44,6.53,4.06,16.45-2.9,21.26l5.79,10.76c1.64-.32,3.09-1.14,4.8-1.32,8.21-.86,15.79,5.05,16.26,13.38h12.6c.43-8.1,7.71-14.02,15.75-13.43,1.93.14,3.49.94,5.31,1.36l5.78-10.54c.1-.49-.5-.46-.83-.78-.65-.62-1.5-1.4-2.05-2.07-5.46-6.55-4.07-16.43,2.9-21.26l-5.79-10.76c-1.64.32-3.09,1.14-4.8,1.32-8.19.86-15.8-5.07-16.26-13.38Z"/>
  <path class="st0" d="M140.25,23.08c.36-.42-1.37-9.22-1.08-11.07.54-3.43,5.75-3.84,6.76.33,1.45,6.01,1.21,13.48,2.56,19.64.21,1.37-1.2,2.99-2.42,3.36-6.17.44-12.72,2.16-18.83,2.53-1.76.11-3.5.22-4.48-1.54-1.31-2.35.18-4.64,2.63-5.23,3.51-.84,7.95-.73,11.57-1.44-20.67-17.1-51.49-17.84-73.62-2.85-23.75,16.08-33.5,46.1-23.77,73.28.63,1.77,2.74,5.65,2.69,7.19-.09,2.95-3.89,4.27-5.89,2.3-1.48-1.46-3.95-8.98-4.61-11.27C14.45,38.93,77.11-11.3,131.22,17.47l9.03,5.62Z"/>
  <path class="st0" d="M56.47,134.24c-.38.44,1.51,9.4.96,11.51-.85,3.29-6.31,2.82-6.65-.76-.32-6.23-2.24-12.96-2.53-19.1-.1-2.01.57-3.02,2.39-3.9,6.18-.41,12.72-2.15,18.83-2.52,1.76-.11,3.5-.22,4.48,1.54,1.27,2.27-.18,4.77-2.63,5.23l-11.57,1.44c20.54,16.95,51,17.84,73.14,3.18,24.07-15.94,34.04-46.27,24.26-73.62-.63-1.77-2.74-5.65-2.69-7.19.09-2.95,3.89-4.27,5.89-2.3,1.48,1.46,3.95,8.98,4.61,11.27,17.62,60.47-47.46,110.87-101.56,79.66l-6.93-4.43Z"/>
  <path class="st0" d="M98.27,61.52c22.49-.14,22.73,34.15.18,34.29-22.49.14-22.73-34.15-.18-34.29ZM96.38,68.6c-6.79.92-10.33,9.44-6.89,15.24,3.1,5.24,10.36,6.76,15.18,2.9,8.3-6.65,2.75-19.64-8.28-18.14Z"/>
</svg>