<?xml version="1.0" encoding="UTF-8"?>
<svg id="Layer_1" xmlns="http://www.w3.org/2000/svg" version="1.1" viewBox="0 0 200.59 191.72">
  <!-- Generator: Adobe Illustrator 29.7.1, SVG Export Plug-In . SVG Version: 2.1.1 Build 8)  -->
  <defs>
    <style>
      .st0 {
        fill: #010101;
        stroke: #000;
        stroke-miterlimit: 10;
        stroke-width: .25px;
      }
    </style>
  </defs>
  <path class="st0" d="M66.05,17.33l49.84-.07c3.1.37,5.82,1.69,8.16,3.7,5.97,6.73,13.72,12.76,19.52,19.52,2.11,2.47,3.54,5.22,3.84,8.52v49.44c-.73,4.31-6.49,4.5-7.4.22v-48.91c-.11-1.3-.58-2.56-1.37-3.58l-20.27-20.26c-1.02-.7-2.2-1.17-3.45-1.24h-47.46c-5.89.59-10.06,4.83-10.5,10.75v87.99c.44,5.68,4.64,9.84,10.27,10.49h62.51c4.76-.5,8.88-3.87,9.94-8.59.5-2.21-.09-5.07,2.65-6,3.65-1.24,5.31,1.81,5.05,5.05-.73,8.86-8.28,16.31-17.13,16.97h-63.76c-9-.94-16.21-8.1-16.94-17.17V34.44c.81-8.83,7.69-16.04,16.51-17.1Z"/>
  <path class="st0" d="M96.25,68.41c-1.97,1.08-3.87,3.79-6.3,3.73-3.35-.08-4.73-4.04-2.47-6.44,2.72-2.89,7.89-5.57,10.93-8.34,2.14-.94,4.48.19,5.14,2.39l.05,42.34c-.63,2.74-3.96,3.87-6.11,2.02-.35-.3-1.25-1.6-1.25-1.96v-33.73Z"/>
</svg>