<?xml version="1.0" encoding="UTF-8"?>
<svg id="Layer_1" xmlns="http://www.w3.org/2000/svg" version="1.1" viewBox="0 0 200.59 191.72">
  <!-- Generator: Adobe Illustrator 29.7.1, SVG Export Plug-In . SVG Version: 2.1.1 Build 8)  -->
  <defs>
    <style>
      .st0 {
        fill: #050505;
        stroke: #000;
        stroke-miterlimit: 10;
        stroke-width: 2px;
      }
    </style>
  </defs>
  <path class="st0" d="M163.46,28.23l21.51,46.79-.35,2.2-20.38,9.56c-3.51.84-3.15-2.33-3.93-2.39-.52-.04-8.82,4.66-8.93,5.16-.07.3.35,1.83.23,2.93-.57,4.95-5.19,9.16-10.23,8.71.54,6.21-4.52,11.08-10.71,10.71.55,7.21-6.79,12.08-13.38,9.57-.35,6.53-6.87,10.38-13,8.21-1.26-.45-4.04-2.88-4.41-2.87-.52,0-1.79,1.31-2.53,1.69-5.92,3.06-13.19-.34-14.11-7.03-4.13,1.68-9.11.19-11.64-3.47-.62-.9-1.54-3.89-1.72-4.02-.79-.58-2.04.25-2.89.22-5.65-.22-9.72-4.72-9.79-10.3-5.2-.1-9.78-3.75-10.26-9.06-.13-1.41.67-3.41-.03-4.17l-9.82-5.51c-.91-.13-1.58,3.09-3.95,2.48-5.86-3.32-13.44-5.45-19.14-8.82-1.27-.75-2.22-1.33-1.88-3.03l21.58-46.91c1.53-1.2,2.73-.3,4.29.33,6.14,2.48,14.04,6.11,19.28,9.79,7.32,5.14,19.95-2.29,28.09-2.83,4.32-.29,8.21,1.25,11.85,1.17,3.18-.07,7.45-1.81,11.08-1.96,9.3-.37,18.36,5.73,27.14,4.57,3.15-.42,3.63-1.74,5.68-3.11,3.28-2.18,13.21-6.39,17.23-8.01,1.68-.68,3.36-1.72,5.14-.6ZM160.88,33.1c-4.15,1.63-8.36,3.46-12.37,5.41-.81.39-2.91,1.15-2.93,2.03l19.3,40.76,14.75-6.7-18.75-41.5ZM51.46,40.39l-15.25-6.49-18.61,41.29,15.14,6.71,18.72-41.51ZM141.72,43.08c-.6-.42-4.04,1.27-5.16,1.47-7.18,1.26-13.76-2.05-20.5-3.54-9.05-2-21.77.71-29.44,6-4.49,3.1-5.84,5.65-7.03,10.95-.55,2.48-1.71,11.49-.77,13.4.6,1.21,3.7,1.3,4.89,1.05,3.7-.76,6.87-8.78,9.3-11.74,4.19-5.1,10.74-6.55,16.58-3.25l39.93,27.65,9.06-5.11-16.86-36.88ZM87.82,40.76c-9.38.35-17.33,5.65-26.92,4.55-1.25-.14-4.96-1.81-5.54-1.44l-16.88,37.05,11.36,6.06c.87.08,7.27-7.24,8.74-8.34,5.65-4.23,13.33-1.39,15.11,5.35,5.92-4.19,14.38-1.23,15.29,6.12,5.79-1.63,12.31,1.27,13.29,7.55.2,1.3-.39,4.71-.13,5.09.16.23,3.78,1.43,5,2.67,1.42,1.45,1.82,3.66,3.06,4.97.67.7,8.06,6.34,8.71,6.59,3.79,1.43,7.58-1.18,7.13-5.21-.2-1.8-1.6-2.91-2.85-4.05-5.31-4.81-13.82-9.43-18.55-14.34-2.32-2.41-.08-5.13,2.43-3.97l21.33,16.54c4.45,3.6,10.48-1.48,7.56-6.41-.63-1.06-2.22-2.08-3.21-2.91-5.78-4.87-12.17-9.13-18.04-13.9-1.49-2.16.26-4.96,2.78-3.75,6.47,4.67,12.48,10.06,18.95,14.72,2.57,1.85,4.24,3.85,7.61,2.34,3.27-1.47,3.64-5.73,1.28-8.17-12.01-7.71-23.19-16.79-35.21-24.46-2.37-1.51-4.47-3.32-7.53-3.11-10.05.71-8.51,18.71-22.59,16.77-1.6-.22-5.63-2.3-5.95-3.99-.36-1.92-.18-8.14-.02-10.33.41-5.75,2.4-12.99,6.7-17.02l7.08-4.96ZM67.8,82.58c-2.15-2.09-4.84-1.44-6.96.24-1.24.99-7.96,7.62-8.55,8.67-2.89,5.18,3.1,9.94,8.18,5.89,1.45-1.16,7.75-7.48,8.36-8.85.89-1.97.54-4.41-1.04-5.95ZM78.93,86.74c-.79.12-1.74.58-2.4,1.06l-13.91,14.01c-2.29,5.27,2.78,9.63,7.58,6.43,1.54-1.03,12.6-12.15,13.51-13.65,2.34-3.84-.49-8.48-4.78-7.85ZM91.94,94.39c-.98.14-1.81.67-2.6,1.25-4.73,3.49-9.43,10.31-14.09,14.21-2.48,5.2,2.71,9.67,7.57,6.43,1.36-.91,13.4-12.96,14.12-14.18,2.23-3.81-.64-8.34-5.01-7.7ZM99.59,107.39c-.78.11-1.75.61-2.4,1.07-1.14.8-8.31,8.11-8.82,9.16-2.33,4.82,2.67,9.28,7.23,6.46,1.03-.64,8.41-7.99,9-8.98,2.18-3.7-.93-8.27-5-7.71ZM109.25,115.73c-.93,3.18-4.05,5.07-6.12,7.46,1.91,2.06,4.15,3.26,6.9,1.93,4.16-2,3.34-7.95-.78-9.39Z"/>
</svg>