<?xml version="1.0" encoding="UTF-8"?>
<svg id="Layer_1" xmlns="http://www.w3.org/2000/svg" version="1.1" viewBox="0 0 200.59 191.72">
  <!-- Generator: Adobe Illustrator 29.7.1, SVG Export Plug-In . SVG Version: 2.1.1 Build 8)  -->
  <path d="M93.87,23.08v51.56h-51.56V23.08h51.56ZM84.43,32.53h-32.67v32.67h32.67v-32.67Z"/>
  <path d="M154.73,23.08v51.56h-51.56V23.08h51.56ZM145.28,32.53h-32.67v32.67h32.67v-32.67Z"/>
  <path d="M93.87,83.94v51.56h-51.56v-51.56h51.56ZM84.43,93.38h-32.67v32.67h32.67v-32.67Z"/>
  <polygon points="133.59 83.94 133.59 105.07 154.73 105.07 154.73 114.36 133.59 114.36 133.59 135.5 124.3 135.5 124.3 114.36 103.17 114.36 103.17 105.07 124.3 105.07 124.3 83.94 133.59 83.94"/>
</svg>