<?xml version="1.0" encoding="UTF-8"?>
<svg id="Layer_1" xmlns="http://www.w3.org/2000/svg" version="1.1" viewBox="0 0 200.59 191.72">
  <!-- Generator: Adobe Illustrator 29.7.1, SVG Export Plug-In . SVG Version: 2.1.1 Build 8)  -->
  <defs>
    <style>
      .st0 {
        fill: #010101;
      }
    </style>
  </defs>
  <path class="st0" d="M79.04,39.07c5.24-.4,13.68-.49,18.89-.08,2.54.2,4.78,1.39,5.09,4.15s-.9,5.54-3.97,5.98c-5.89.85-13.48-.45-19.6.07-15.39,1.29-16.19,24.27,1.17,25.36,13.79.86,29.03-1.18,42.65,0,16.31,1.4,25.09,19.24,17.46,33.56-8.72,16.36-27.74,11.06-43.01,11.89-6.22-.42-6.46-9.61-.04-10.17,7.64-.66,16.26.63,23.93,0,10.57-.86,14.9-11.36,9.46-20.11-2.48-3.99-5.87-4.98-10.39-5.24-14.01-.8-28.77.65-42.86-.02-27.27-3.57-26.58-43.26,1.22-45.38Z"/>
  <path class="st0" d="M66.72,99.72c21.34-1.31,21.76,32.28-1.01,30.25-17.4-1.55-17.72-29.1,1.01-30.25ZM66.71,109.9c-3.61.51-4.94,4.56-3.45,7.59,1.85,3.77,8.64,3.11,9.38-1.2.7-4.07-1.72-6.99-5.92-6.4Z"/>
  <path class="st0" d="M125.94,29.12c22.65-2.55,23.12,30.4,2.3,30.28-19.03-.11-19.9-28.3-2.3-30.28ZM127.84,39.06c-5.98.49-5.97,9.29-.49,10.06,7.97,1.13,8.05-10.68.49-10.06Z"/>
</svg>