<?xml version="1.0" encoding="UTF-8"?>
<svg id="Layer_1" xmlns="http://www.w3.org/2000/svg" version="1.1" viewBox="0 0 200.59 191.72">
  <!-- Generator: Adobe Illustrator 29.7.1, SVG Export Plug-In . SVG Version: 2.1.1 Build 8)  -->
  <defs>
    <style>
      .st0 {
        fill: none;
        stroke: #000;
        stroke-miterlimit: 10;
        stroke-width: 5px;
      }
    </style>
  </defs>
  <path class="st0" d="M106.8,92.72c-.9.87-4.08,3.79-5.47,4.87-.77.61-1.14.91-1.74,1.07-2.63.72-22.74.35-26.59.02h-.04c-2.2-.19-4.01-1.8-4.45-3.97l-12.08-59.6c-.21-1.27-.5-6.96,1.02-6.96h120.97c1.31,0,2.54,4.04,1.69,5.38l-18.33,63.02c-.34,1.18-1.37,2-2.58,2.14,0,0-.02,0-.02,0-9.38,1.11-20.82-.78-30.59-.13-.71.05-2.4-.28-2.83-.84-1.71-2.19-4-3.47-5.59-5.01v-14.1c.68-.75.24-.69,1.47-.45,3.2.63,23.64,8.83,24.5,7.87-.45-2.81.98-8.68-.74-10.75l-25.23-15.96c-.54-5.58.74-12.41,0-17.81-1.08-7.93-12.11-7.47-13.36-.74-.96,5.2.71,13.02,0,18.55l-24.9,15.54c-1.74,1.05-1.26,11.19-.69,11.18l25.59-8.17v14.84Z"/>
  <path class="st0" d="M72.15,108.89h74.55c3.29,0,5.76,3.27,4.58,6.34-.31.82-.8,1.37-1.37,1.37h-80.89c-7.52,0-17.19-10.23-18.05-15.48l-15.57-76.47c-.47-2.31-2.53-3.93-4.88-3.86-4.95.15-11.93.7-13.13-1.16-1.44-2.23-.69-5.63,1.73-6.65,2.15-.91,16.65-.98,19.43-.52.2.03.4.07.6.13,1.76.45,3.08,1.91,3.45,3.69l16.3,79.69c1.25,6.09,5.72,11.17,11.75,12.71.15.04.31.08.46.11.35.08.7.11,1.05.11Z"/>
  <circle class="st0" cx="81" cy="136.09" r="10.31"/>
  <circle class="st0" cx="128.09" cy="136.09" r="10.31"/>
</svg>