<?xml version="1.0" encoding="UTF-8"?>
<svg id="Layer_1" xmlns="http://www.w3.org/2000/svg" version="1.1" viewBox="0 0 200.59 191.72">
  <!-- Generator: Adobe Illustrator 29.7.1, SVG Export Plug-In . SVG Version: 2.1.1 Build 8)  -->
  <defs>
    <style>
      .st0 {
        stroke-width: .75px;
      }

      .st0, .st1 {
        fill: #010101;
        stroke: #000;
        stroke-miterlimit: 10;
      }

      .st1 {
        stroke-width: .25px;
      }
    </style>
  </defs>
  <path class="st0" d="M66.41,19.12l49.84-.07c3.1.36,5.82,1.64,8.16,3.58,5.97,6.51,13.72,12.35,19.52,18.9,2.11,2.39,3.54,5.05,3.84,8.25v47.85c-.73,4.17-6.49,4.36-7.4.21v-47.35c-.11-1.26-.58-2.48-1.37-3.47l-20.27-19.61c-1.02-.68-2.2-1.13-3.45-1.2h-47.46c-5.89.57-10.06,4.67-10.5,10.4v85.17c.44,5.5,6.64,9.52,12.27,10.15h62.51c4.76-.48,6.88-3.74,7.94-8.31.5-2.14-.09-4.9,2.65-5.81,3.65-1.2,5.31,1.76,5.05,4.88-.73,8.58-6.28,15.79-15.13,16.42h-63.76c-9-.91-18.21-7.84-18.94-16.62V35.68c.81-8.55,7.69-15.53,16.51-16.56Z"/>
  <path class="st1" d="M98.09,66.23c-1.97,1.08-3.87,3.79-6.3,3.73-3.35-.08-4.73-4.04-2.47-6.44,2.72-2.89,7.89-5.57,10.93-8.34,2.14-.94,4.48.19,5.14,2.39l.05,42.34c-.63,2.74-3.96,3.87-6.11,2.02-.35-.3-1.25-1.6-1.25-1.96v-33.73Z"/>
</svg>