<?xml version="1.0" encoding="UTF-8"?>
<svg id="Layer_1" xmlns="http://www.w3.org/2000/svg" version="1.1" viewBox="0 0 200.59 191.72">
  <!-- Generator: Adobe Illustrator 29.7.1, SVG Export Plug-In . SVG Version: 2.1.1 Build 8)  -->
  <path d="M84.42,126.39c-6.97-.98-12.2-6.34-13.25-13.26-6.86-.87-12.01-6.46-13.03-13.18-3.65-.5-7.28-2.2-9.76-4.95-4.69-5.2-4.44-12.98-.08-18.3l35.49-35.45.28.13,17.24,17.26c5.1,5.45,14.01-.31,9.47-6.78l-24.18-24.2c-5.3-4.26-12.96-4.2-18.14.22-7.72,8.51-17.26,16.21-24.79,24.79-2.34,2.66-3.39,5.72-3.58,9.26-.24,4.45,1.89,7.97,4.31,11.48l-6.41,6.44-.43.05c-7.92-9.49-9.53-23-1.36-32.9,8.33-8.08,16.25-17.11,24.78-24.95,5.79-5.32,12.6-7.63,20.52-6.47,6.49.95,11.3,4.47,15.55,9.24,1.83-1.76,3.49-3.71,5.55-5.2,7.76-5.6,19.02-5.7,26.98-.45,11.25,10.09,21.5,21.32,32.36,31.85,7.47,8.7,7.64,21.62.29,30.47-17.68,18.05-35.72,35.77-53.53,53.7-8.9,9.1-22.64,3.13-24.3-8.78ZM114.89,24.56c-4.63.43-8.19,3.32-11.03,6.75l.22.38c7.11,8.33,22.85,17.65,15.64,30.56-4.73,8.47-15.94,10.98-23.47,4.61l-12.16-12.18-.28-.13-28.17,28.14c-4.08,4.85,1.8,10.84,6.5,6.65l21.35-21.37.28-.13,6.36,6.46-21.2,21.22c-4.04,4.41,1.4,11.07,6.35,7.09l21.66-21.65,6.49,6.49-21.35,21.36c-3.98,4.89,1.81,10.89,6.5,6.94l21.52-21.5c2.26,2.03,4.46,4.23,6.46,6.46l-.13.17c-7.29,7.39-14.83,14.57-21.94,22.12-2.63,5.27,2.69,9.48,7.3,5.95,17.99-18.05,36.05-36.05,53.88-54.24,3.98-5.54,3.44-12.81-1.02-17.9l-28.76-28.74c-3.03-2.68-6.96-3.92-11-3.54Z"/>
</svg>