<?xml version="1.0" encoding="UTF-8"?>
<svg id="Layer_1" xmlns="http://www.w3.org/2000/svg" version="1.1" viewBox="0 0 200.59 191.72">
  <!-- Generator: Adobe Illustrator 29.7.1, SVG Export Plug-In . SVG Version: 2.1.1 Build 8)  -->
  <defs>
    <style>
      .st0 {
        fill: #050505;
        stroke: #000;
        stroke-miterlimit: 10;
        stroke-width: 4px;
      }
    </style>
  </defs>
  <path class="st0" d="M133.13,67.03l20.29,11.27c.59,1.1.1,2.23-.83,2.96-6,3.39-12.55,5.88-18.58,9.2-.4.22-.98.26-.89.91l19.1,9.4c3.46,3.1-.12,4.53-2.74,5.88-16.43,8.49-33.38,16.02-49.82,24.5l-1.29.33-54.32-26.8c-1.37-1.29-.66-2.96.72-3.91l19.09-9.41-20.3-11.09c-.59-1.1-.1-2.23.83-2.96l18.64-9.14.83-.97-19.09-9.41c-2.48-2.06-1.63-3.54.81-4.9,16.54-9.2,35.06-16.34,51.74-25.47l1.29-.33c16.87,8.37,34.13,16.18,50.87,24.84,2.33,1.21,6.26,2.83,2.88,5.66l-19.24,9.44ZM145.39,55.84c.18-.24-.62-.66-.83-.79-7.21-4.5-17.85-9-25.73-12.86-6.78-3.32-13.64-6.69-20.48-9.79l-45.91,22.65-.83.79,47.01,23.01,46.77-23.01ZM145.39,78.94l-18.21-8.64-27.33,13.4-1.85.27-28.17-13.67c-5.76,2.91-11.91,5.24-17.5,8.46-.39.22-.88-.04-.71.71,15.75,7.48,31.1,15.84,47.05,22.91l46.28-22.63.46-.8ZM145.39,102.74l-17.05-8.38-1.49-.28c-9.55,4.44-18.83,9.62-28.5,13.7l-28.52-13.72-18.22,8.68c-.18.24.62.66.83.79,7.01,4.38,17.35,8.75,25.01,12.5,7.02,3.44,14.12,6.93,21.2,10.15l45.91-22.65.83-.79Z"/>
</svg>