<?xml version="1.0" encoding="UTF-8"?>
<svg id="Layer_1" xmlns="http://www.w3.org/2000/svg" version="1.1" viewBox="0 0 200.59 191.72">
  <!-- Generator: Adobe Illustrator 29.7.1, SVG Export Plug-In . SVG Version: 2.1.1 Build 8)  -->
  <defs>
    <style>
      .st0 {
        fill: #080808;
      }

      .st1 {
        fill: none;
        stroke: #000;
        stroke-miterlimit: 10;
        stroke-width: 8px;
      }
    </style>
  </defs>
  <rect class="st1" x="41.66" y="21.92" width="114.35" height="114.35" rx="18.73" ry="18.73"/>
  <g>
    <path class="st0" d="M61.49,67.34l7.62.34,10.37,17.65v-17.98h4.84v25.59c-2.25-.32-6.31.79-7.96-.68l-10.02-17.99v18.67h-4.84v-25.59Z"/>
    <path class="st0" d="M90.54,92.93v-25.59h13.49c.27,0,3.26,1.41,3.77,1.76,6.65,4.53,6.27,17.25-.43,21.64-.6.39-4.42,2.19-4.73,2.19h-12.1ZM96.76,72.18v14.87c0,2.15,7.8,1.09,8.85-3.6,1.61-7.21-.76-12.61-8.85-11.27Z"/>
    <path class="st0" d="M136.18,68.05c-.76,7.43-3.17,3.8-7.97,4.07-5.9.34-7.21,8.19-5.01,12.7,3.1,6.36,11.84,1.38,12.29,1.89-.07,2.72.91,4.78-2.06,5.89-23.74,8.88-23.63-35.63,2.75-24.55Z"/>
  </g>
</svg>