<?xml version="1.0" encoding="UTF-8"?>
<svg id="Layer_1" xmlns="http://www.w3.org/2000/svg" version="1.1" viewBox="0 0 200.59 191.72">
  <!-- Generator: Adobe Illustrator 29.7.1, SVG Export Plug-In . SVG Version: 2.1.1 Build 8)  -->
  <defs>
    <style>
      .st0, .st1 {
        fill: #010101;
      }

      .st2 {
        stroke-width: 2px;
      }

      .st2, .st1, .st3, .st4 {
        stroke: #000;
        stroke-miterlimit: 10;
      }

      .st1 {
        stroke-width: .25px;
      }

      .st3 {
        stroke-width: 10px;
      }

      .st3, .st4 {
        fill: none;
      }

      .st4 {
        stroke-width: 9px;
      }
    </style>
  </defs>
  <circle class="st4" cx="98.83" cy="79.1" r="66.6"/>
  <line class="st3" x1="53.01" y1="124.15" x2="144.66" y2="32.5"/>
  <path class="st1" d="M82.54,79.58"/>
  <g>
    <path class="st0" d="M101.46,122.51c.1,4.97.96,12.81-6.54,11.6-5.51-.89-3.86-7.04-4.33-10.95-5.69-1.46-11.5-3.06-15.83-7.27l7.69-5.66c5.71,4.13,12.81,4.94,19.51,2.83,8.99-2.83,15.05-14,6.75-21.53l-3.91-3.72c.19-.48,5.82-7.03,6.29-7.31,1.6-.95,3.14,1.44,4.38,2.5,16.84,14.4,5.24,36.22-14,39.52Z"/>
    <polyline class="st0" points="104.79 87.81 111.51 79.82 113.76 81.32 117.28 84.69"/>
    <polyline class="st0" points="111.51 79.82 111.79 79.48 113.47 81.05"/>
    <polyline class="st0" points="111.7 79.82 111.51 80.32 113.47 81.55 111.87 79.82"/>
  </g>
  <g>
    <path class="st0" d="M89.5,70.48c.15.54,1.81.59,1.61.89-.54.79-6.19,6.47-6.93,6.96-.21.14-.36.35-.66.28-20.09-13.01-10.24-37.89,11.09-41.59-.1-4.97-.96-12.81,6.54-11.6,5.51.89,3.86,7.04,4.33,10.95,5.07,1.36,9.44,1.59,13.43,5.22l-6.71,6.61c-7.47-4.19-17.87-3.86-24.49,1.83-7.45,6.4-6.49,16.92,1.78,20.45Z"/>
    <line class="st1" x1="88.97" y1="70.34" x2="90.82" y2="71.23"/>
    <polyline class="st0" points="88.13 69.91 90.82 71.37 83.72 78.9 80.71 76.55"/>
  </g>
  <polyline class="st2" points="94.74 38.01 94.74 26.29 104.92 26.29 104.92 39.01"/>
  <polyline class="st2" points="90.74 122.15 90.74 133.87 100.92 133.87 100.92 121.15"/>
</svg>