<?xml version="1.0" encoding="UTF-8"?>
<svg id="Layer_1" xmlns="http://www.w3.org/2000/svg" version="1.1" viewBox="0 0 200.59 191.72">
  <!-- Generator: Adobe Illustrator 29.7.1, SVG Export Plug-In . SVG Version: 2.1.1 Build 8)  -->
  <path d="M82.64,21.74v10.68h-22.31c-4.53,0-7.9,4.53-8.19,8.69-.92,13.54,4.03,29.34-11.71,36.34-.48.21-2.21.7-2.41.86-.27.23-.28,1.33,0,1.56.19.15,1.59.55,2.01.74,6.51,3.03,11.56,9.11,12.11,16.48.48,6.46-.45,13.51,0,19.99.29,4.18,3.66,8.69,8.19,8.69h22.31v10.68h-24.03c-2.48,0-6.98-2.1-8.99-3.58-11.83-8.67-7.28-21.67-8.14-34.24-.23-3.29-1.86-6.37-4.89-7.86-.43-.21-2.05-.83-2.44-.83h-6.89s-.26-.24-.26-.26v-21.19s.24-.26.26-.26h6.89c.39,0,2.01-.62,2.44-.83,3.03-1.49,4.66-4.57,4.89-7.86.85-12.42-3.64-25.56,8.03-34.17,1.98-1.46,6.67-3.65,9.1-3.65h24.03Z"/>
  <path d="M115.02,136.45v-10.68h22.31c4.53,0,7.9-4.53,8.19-8.69.44-6.47-.48-13.53,0-19.99.55-7.38,5.59-13.45,12.11-16.48.42-.2,1.83-.59,2.01-.74.27-.23.28-1.32,0-1.56-.2-.17-2.03-.69-2.53-.91-15.71-7.11-10.59-22.94-11.59-36.47-.29-3.98-3.77-8.52-8.02-8.52h-22.48v-10.68h24.03c2.48,0,6.98,2.1,8.99,3.58,11.83,8.67,7.28,21.67,8.14,34.24.22,3.29,1.86,6.38,4.89,7.86.43.21,2.05.83,2.44.83h6.89s.26.24.26.26v21.19s-.24.26-.26.26h-6.89c-.39,0-2.01.62-2.44.83-3.02,1.48-4.66,4.57-4.89,7.86-.85,12.42,3.64,25.56-8.03,34.17-1.98,1.46-6.67,3.65-9.1,3.65h-24.03Z"/>
</svg>