<?xml version="1.0" encoding="UTF-8"?>
<svg id="Layer_1" xmlns="http://www.w3.org/2000/svg" version="1.1" viewBox="0 0 200.59 191.72">
  <!-- Generator: Adobe Illustrator 29.7.1, SVG Export Plug-In . SVG Version: 2.1.1 Build 8)  -->
  <defs>
    <style>
      .st0 {
        fill: #020202;
      }
    </style>
  </defs>
  <path class="st0" d="M81.75,24.53c3.86-2.15,8.49-2.97,12.82-2.09.94.19,4.58,1.67,4.84,1.63.17-.03,2.13-1.65,2.73-1.97,7.02-3.79,14.4-2.4,20.17,2.76,4.29,3.83,17.22,16.11,19.57,20.5,2.52,4.72,1.92,10.21,1.96,15.37.15,16.75-.14,33.53-.22,50.28-1.16,8.14-8.09,14.42-16.39,14.57-2.28,7.33-7.64,12.23-15.35,13.42-13.1-.28-27.04.9-40.08.14-12.1-.7-17.69-9.24-18-20.69-.54-19.91.64-39.93.17-59.86.08-4.75,1.94-9.34,5.26-12.75,6.68-5.78,12.66-13.44,19.37-19.05.94-.78,2.09-1.67,3.15-2.26ZM85.84,31.42c-1.02.58-2.03,1.56-2.91,2.36-5.51,5.01-13.24,12.45-18.06,18-2.73,3.14-2.66,5.55-2.77,9.44-.59,20.61.18,41.39.27,61.99,1.24,4.15,4.68,7.24,9.03,7.61,11.42-.14,22.89.38,34.31.12,7.31-.17,12.6-1.21,13.79-9.62l.18-62.39c-.09-2.62-1.23-5.01-2.87-7.01-5.67-6.89-13.93-13.23-20-19.92-3.11-2.24-7.64-2.47-10.98-.58ZM127.99,117.38c3.9-.69,6.63-3.25,7.53-7.06.04-17.21.41-34.46.17-51.66-.05-3.83.49-7.18-1.96-10.46-4.45-5.96-12.26-11.5-17.11-17.36-2.75-2.6-7.27-3.48-10.49-1.11l17.32,17.32c3.31,4.03,4.28,7.95,4.46,13.01.68,18.58-.72,37.7-.22,56.33l.3,1Z"/>
  <path class="st0" d="M95.42,65.23c.55.72-.24,2.47.24,3.04.1.12,2.36.74,2.93,1.02,3.15,1.59,5.69,4.78,6.35,8.27l-9.4,2.82c-.42-.05-.41-1.58-.7-2.15-2.87-5.71-14.08.59-4.27,3.86,4.78,1.59,11.22,1.7,14.12,6.71,3.48,5.99.62,11.74-5.22,14.6-.74.36-3.65,1.25-3.82,1.4-.56.47.2,2.74-.38,3.18-.65.49-8.44-.34-9.85.09l-.07-3.44c-4.78-.96-8.64-4.92-10-9.54l9.69-2.78c.03,4.98,7.47,5.97,10.23,2.99,1.95-2.1-1.53-3.81-3.15-4.36-4.67-1.61-9.78-1.38-13.44-5.47-4.2-4.69-2.66-12.42,2.8-15.37.72-.39,3.87-1.5,4.07-1.8.09-.13-.27-2.58,0-3.06l9.86-.02Z"/>
  <path class="st0" d="M87.83,36.71c3.44-2.1,7.87-.65,8.93,3.35,1.84,6.91-9.15,11.24-11.47,2.86-.6-2.19.62-5.04,2.54-6.21Z"/>
</svg>