<?xml version="1.0" encoding="UTF-8"?>
<svg id="Layer_1" xmlns="http://www.w3.org/2000/svg" version="1.1" viewBox="0 0 200.59 191.72">
  <!-- Generator: Adobe Illustrator 29.7.1, SVG Export Plug-In . SVG Version: 2.1.1 Build 8)  -->
  <defs>
    <style>
      .st0 {
        fill: #fdfdfd;
      }

      .st0, .st1 {
        stroke: #000;
        stroke-miterlimit: 10;
        stroke-width: .75px;
      }

      .st1 {
        fill: #020202;
      }
    </style>
  </defs>
  <path class="st1" d="M98.25,16.31c.4-.07.76-.03,1.13.14l52.78,19.39.15.69c-.67,15.37.84,31.43-.02,46.72-1.54,27.37-22.13,47.73-46.84,56.65-3.4,1.23-5.67,2.39-9.31,1.47-25.66-6.54-50.83-30.95-51.26-58.66l.15-46.87,53.22-19.52ZM143.31,42.03l-44.81-16.18-44.62,16.18-.05,39.83c1.13,21.93,15.35,37.9,34.5,46.89,1.9.89,8.69,3.88,10.4,3.87,1.31-.01,6.37-2.12,7.88-2.75,20.4-8.6,35.56-25.07,36.74-48.01l-.05-39.83Z"/>
  <path class="st0" d="M143.31,42.03l.05,39.83c-1.18,22.94-16.34,39.41-36.74,48.01-1.51.63-6.56,2.74-7.88,2.75-1.71.02-8.5-2.98-10.4-3.87-19.16-8.99-33.37-24.96-34.5-46.89l.05-39.83,44.62-16.18,44.81,16.18ZM122.27,58.24l-32.52,32.4-14.82-14.5c-.88.54-6.31,5.8-6.23,6.23l21.06,20.86,38.65-38.58c.26-.33.03-.46-.14-.71-.41-.6-4.88-5.07-5.46-5.46-.17-.11-.28-.31-.53-.24Z"/>
  <path class="st1" d="M122.27,58.24c.25-.07.36.13.53.24.58.39,5.05,4.86,5.46,5.46.17.25.4.38.14.71l-38.65,38.58-21.06-20.86c-.08-.44,5.35-5.69,6.23-6.23l14.82,14.5,32.52-32.4Z"/>
</svg>