<?xml version="1.0" encoding="UTF-8"?>
<svg id="Layer_1" xmlns="http://www.w3.org/2000/svg" version="1.1" viewBox="0 0 200.59 191.72">
  <!-- Generator: Adobe Illustrator 29.7.1, SVG Export Plug-In . SVG Version: 2.1.1 Build 8)  -->
  <defs>
    <style>
      .st0 {
        fill: #010101;
      }

      .st1 {
        fill: #fefefe;
      }
    </style>
  </defs>
  <path d="M150.18,23.49c2.18,1.12,3.37,2.2,4.26,4.54v102.41c-1.13,2.6-2.62,4.01-5.52,4.27H48.76c-3.09-.13-5.41-2.44-5.53-5.53V29.01c.25-2.91,1.67-4.39,4.27-5.52h102.69ZM143.09,34.84H54.58v88.51h88.51V34.84Z"/>
  <path class="st1" d="M143.09,34.84v88.51H54.58V34.84h88.51ZM121.53,64.62v4.4c0,.49,1.26,2.43,1.69,2.85,3.5,3.38,9.24,1.09,9.67-3.69.39-4.35.45-13.89-.01-18.17-.27-2.5-2.47-4.69-4.96-4.96-4.28-.46-13.82-.4-18.17-.01-4.78.43-7.06,6.17-3.69,9.67.42.44,2.36,1.69,2.85,1.69h4.4l-37.16,37.16v-4.4c0-.49-1.26-2.43-1.69-2.85-3.5-3.38-9.24-1.09-9.67,3.69-.39,4.35-.45,13.89.01,18.17.27,2.5,2.47,4.69,4.96,4.96,4.28.46,13.82.4,18.17.01,4.78-.43,7.06-6.17,3.69-9.67-.42-.44-2.36-1.69-2.85-1.69h-4.4l37.16-37.16Z"/>
  <path class="st0" d="M121.53,64.62l-37.16,37.16h4.4c.49,0,2.43,1.26,2.85,1.69,3.38,3.5,1.09,9.24-3.69,9.67-4.35.39-13.89.45-18.17-.01-2.5-.27-4.69-2.47-4.96-4.96-.46-4.28-.4-13.82-.01-18.17.43-4.78,6.17-7.06,9.67-3.69.44.42,1.69,2.36,1.69,2.85v4.4l37.16-37.16h-4.4c-.49,0-2.43-1.26-2.85-1.69-3.38-3.5-1.09-9.24,3.69-9.67,4.35-.39,13.89-.45,18.17.01,2.5.27,4.69,2.47,4.96,4.96.46,4.28.4,13.82.01,18.17-.43,4.78-6.17,7.06-9.67,3.69-.44-.42-1.69-2.36-1.69-2.85v-4.4Z"/>
</svg>